<?xml version="1.0" encoding="UTF-8" standalone="no"?>
<!DOCTYPE svg PUBLIC "-//W3C//DTD SVG 1.1//EN"
 "http://www.w3.org/Graphics/SVG/1.1/DTD/svg11.dtd">
<!-- Generated by graphviz version 2.38.0 (20140413.2041)
 -->
<!-- Title: G Pages: 1 -->
<svg width="300pt" height="1559pt"
 viewBox="0.00 0.00 300.24 1559.00" xmlns="http://www.w3.org/2000/svg" xmlns:xlink="http://www.w3.org/1999/xlink">
<g id="graph0" class="graph" transform="scale(1 1) rotate(0) translate(4 1555)">
<title>G</title>
<polygon fill="white" stroke="none" points="-4,4 -4,-1555 296.24,-1555 296.24,4 -4,4"/>
<g id="clust1" class="cluster"><title>cluster_Global</title>
<path fill="none" stroke="gray" d="M20,-8C20,-8 272.24,-8 272.24,-8 278.24,-8 284.24,-14 284.24,-20 284.24,-20 284.24,-1531 284.24,-1531 284.24,-1537 278.24,-1543 272.24,-1543 272.24,-1543 20,-1543 20,-1543 14,-1543 8,-1537 8,-1531 8,-1531 8,-20 8,-20 8,-14 14,-8 20,-8"/>
<text text-anchor="middle" x="146.12" y="-1530.2" font-family="Times,serif" font-size="11.00" fill="gray">Global</text>
</g>
<g id="clust2" class="cluster"><title>cluster_\t1st3</title>
<path fill="none" stroke="gray" d="M111.016,-1410C111.016,-1410 181.224,-1410 181.224,-1410 187.224,-1410 193.224,-1416 193.224,-1422 193.224,-1422 193.224,-1504 193.224,-1504 193.224,-1510 187.224,-1516 181.224,-1516 181.224,-1516 111.016,-1516 111.016,-1516 105.016,-1516 99.0161,-1510 99.0161,-1504 99.0161,-1504 99.0161,-1422 99.0161,-1422 99.0161,-1416 105.016,-1410 111.016,-1410"/>
<text text-anchor="middle" x="146.12" y="-1503.2" font-family="Times,serif" font-size="11.00" fill="gray">t1st3</text>
</g>
<g id="clust3" class="cluster"><title>cluster_\t1st3\JSONMin</title>
<path fill="none" stroke="gray" d="M119.016,-1418C119.016,-1418 173.224,-1418 173.224,-1418 179.224,-1418 185.224,-1424 185.224,-1430 185.224,-1430 185.224,-1477 185.224,-1477 185.224,-1483 179.224,-1489 173.224,-1489 173.224,-1489 119.016,-1489 119.016,-1489 113.016,-1489 107.016,-1483 107.016,-1477 107.016,-1477 107.016,-1430 107.016,-1430 107.016,-1424 113.016,-1418 119.016,-1418"/>
<text text-anchor="middle" x="146.12" y="-1476.2" font-family="Times,serif" font-size="11.00" fill="gray">JSONMin</text>
</g>
<!-- \\t1st3\\JSONMin\\JSONMin -->
<g id="node1" class="node"><title>\\t1st3\\JSONMin\\JSONMin</title>
<polygon fill="none" stroke="black" points="177.328,-1462 114.912,-1462 114.912,-1426 177.328,-1426 177.328,-1462"/>
<text text-anchor="middle" x="146.12" y="-1440.7" font-family="Courier,monospace" font-size="11.00">JSONMin</text>
</g>
<!-- \\TipoDeDados -->
<g id="node2" class="node"><title>\\TipoDeDados</title>
<polygon fill="none" stroke="black" points="190.233,-1402 102.007,-1402 102.007,-1366 190.233,-1366 190.233,-1402"/>
<text text-anchor="middle" x="146.12" y="-1380.7" font-family="Courier,monospace" font-size="11.00">TipoDeDados</text>
</g>
<!-- \\Integra -->
<g id="node3" class="node"><title>\\Integra</title>
<polygon fill="none" stroke="black" points="177.328,-1348 114.912,-1348 114.912,-1312 177.328,-1312 177.328,-1348"/>
<text text-anchor="middle" x="146.12" y="-1326.7" font-family="Courier,monospace" font-size="11.00">Integra</text>
</g>
<!-- \\EstabelecimentoSaude -->
<g id="node4" class="node"><title>\\EstabelecimentoSaude</title>
<polygon fill="none" stroke="black" points="220.141,-1294 72.0984,-1294 72.0984,-1258 220.141,-1258 220.141,-1294"/>
<text text-anchor="middle" x="146.12" y="-1272.7" font-family="Courier,monospace" font-size="11.00">EstabelecimentoSaude</text>
</g>
<!-- \\EquipesSaude -->
<g id="node5" class="node"><title>\\EquipesSaude</title>
<polygon fill="none" stroke="black" points="193.833,-1240 98.4067,-1240 98.4067,-1204 193.833,-1204 193.833,-1240"/>
<text text-anchor="middle" x="146.12" y="-1218.7" font-family="Courier,monospace" font-size="11.00">EquipesSaude</text>
</g>
<!-- \\ProfissionalSaude -->
<g id="node6" class="node"><title>\\ProfissionalSaude</title>
<polygon fill="none" stroke="black" points="210.338,-1186 81.9014,-1186 81.9014,-1150 210.338,-1150 210.338,-1186"/>
<text text-anchor="middle" x="146.12" y="-1164.7" font-family="Courier,monospace" font-size="11.00">ProfissionalSaude</text>
</g>
<!-- \\IndicadorGeral -->
<g id="node7" class="node"><title>\\IndicadorGeral</title>
<polygon fill="none" stroke="black" points="200.536,-1132 91.704,-1132 91.704,-1096 200.536,-1096 200.536,-1132"/>
<text text-anchor="middle" x="146.12" y="-1110.7" font-family="Courier,monospace" font-size="11.00">IndicadorGeral</text>
</g>
<!-- \\QuadroUm -->
<g id="node8" class="node"><title>\\QuadroUm</title>
<polygon fill="none" stroke="black" points="180.429,-1078 111.811,-1078 111.811,-1042 180.429,-1042 180.429,-1078"/>
<text text-anchor="middle" x="146.12" y="-1056.7" font-family="Courier,monospace" font-size="11.00">QuadroUm</text>
</g>
<!-- \\QuadroDois -->
<g id="node9" class="node"><title>\\QuadroDois</title>
<polygon fill="none" stroke="black" points="187.131,-1024 105.109,-1024 105.109,-988 187.131,-988 187.131,-1024"/>
<text text-anchor="middle" x="146.12" y="-1002.7" font-family="Courier,monospace" font-size="11.00">QuadroDois</text>
</g>
<!-- \\QuadroTres -->
<g id="node10" class="node"><title>\\QuadroTres</title>
<polygon fill="none" stroke="black" points="187.131,-970 105.109,-970 105.109,-934 187.131,-934 187.131,-970"/>
<text text-anchor="middle" x="146.12" y="-948.7" font-family="Courier,monospace" font-size="11.00">QuadroTres</text>
</g>
<!-- \\QuadroQuatro -->
<g id="node11" class="node"><title>\\QuadroQuatro</title>
<polygon fill="none" stroke="black" points="193.833,-916 98.4067,-916 98.4067,-880 193.833,-880 193.833,-916"/>
<text text-anchor="middle" x="146.12" y="-894.7" font-family="Courier,monospace" font-size="11.00">QuadroQuatro</text>
</g>
<!-- \\QuadroCinco -->
<g id="node12" class="node"><title>\\QuadroCinco</title>
<polygon fill="none" stroke="black" points="190.233,-862 102.007,-862 102.007,-826 190.233,-826 190.233,-862"/>
<text text-anchor="middle" x="146.12" y="-840.7" font-family="Courier,monospace" font-size="11.00">QuadroCinco</text>
</g>
<!-- \\QuadroSeis -->
<g id="node13" class="node"><title>\\QuadroSeis</title>
<polygon fill="none" stroke="black" points="187.131,-808 105.109,-808 105.109,-772 187.131,-772 187.131,-808"/>
<text text-anchor="middle" x="146.12" y="-786.7" font-family="Courier,monospace" font-size="11.00">QuadroSeis</text>
</g>
<!-- \\TipoTeleconsultoria -->
<g id="node14" class="node"><title>\\TipoTeleconsultoria</title>
<polygon fill="none" stroke="black" points="217.041,-754 75.1988,-754 75.1988,-718 217.041,-718 217.041,-754"/>
<text text-anchor="middle" x="146.12" y="-732.7" font-family="Courier,monospace" font-size="11.00">TipoTeleconsultoria</text>
</g>
<!-- \\CanalAcesso -->
<g id="node15" class="node"><title>\\CanalAcesso</title>
<polygon fill="none" stroke="black" points="190.233,-700 102.007,-700 102.007,-664 190.233,-664 190.233,-700"/>
<text text-anchor="middle" x="146.12" y="-678.7" font-family="Courier,monospace" font-size="11.00">CanalAcesso</text>
</g>
<!-- \\GrauSatisfacao -->
<g id="node16" class="node"><title>\\GrauSatisfacao</title>
<polygon fill="none" stroke="black" points="200.536,-646 91.704,-646 91.704,-610 200.536,-610 200.536,-646"/>
<text text-anchor="middle" x="146.12" y="-624.7" font-family="Courier,monospace" font-size="11.00">GrauSatisfacao</text>
</g>
<!-- \\ResolucaoDuvidaTeleconsultoria -->
<g id="node17" class="node"><title>\\ResolucaoDuvidaTeleconsultoria</title>
<polygon fill="none" stroke="black" points="253.152,-592 39.0876,-592 39.0876,-556 253.152,-556 253.152,-592"/>
<text text-anchor="middle" x="146.12" y="-570.7" font-family="Courier,monospace" font-size="11.00">ResolucaoDuvidaTeleconsultoria</text>
</g>
<!-- \\IntencaoEncaminhamentoTeleconsultoria -->
<g id="node18" class="node"><title>\\IntencaoEncaminhamentoTeleconsultoria</title>
<polygon fill="none" stroke="black" points="276.36,-538 15.88,-538 15.88,-502 276.36,-502 276.36,-538"/>
<text text-anchor="middle" x="146.12" y="-516.7" font-family="Courier,monospace" font-size="11.00">IntencaoEncaminhamentoTeleconsultoria</text>
</g>
<!-- \\EvitouEncaminhamentoTeleconsultoria -->
<g id="node19" class="node"><title>\\EvitouEncaminhamentoTeleconsultoria</title>
<polygon fill="none" stroke="black" points="269.657,-484 22.5823,-484 22.5823,-448 269.657,-448 269.657,-484"/>
<text text-anchor="middle" x="146.12" y="-462.7" font-family="Courier,monospace" font-size="11.00">EvitouEncaminhamentoTeleconsultoria</text>
</g>
<!-- \\TipoAtividade -->
<g id="node20" class="node"><title>\\TipoAtividade</title>
<polygon fill="none" stroke="black" points="196.934,-430 95.3057,-430 95.3057,-394 196.934,-394 196.934,-430"/>
<text text-anchor="middle" x="146.12" y="-408.7" font-family="Courier,monospace" font-size="11.00">TipoAtividade</text>
</g>
<!-- \\TipoObjetoAprendizagem -->
<g id="node21" class="node"><title>\\TipoObjetoAprendizagem</title>
<polygon fill="none" stroke="black" points="226.844,-376 65.3961,-376 65.3961,-340 226.844,-340 226.844,-376"/>
<text text-anchor="middle" x="146.12" y="-354.7" font-family="Courier,monospace" font-size="11.00">TipoObjetoAprendizagem</text>
</g>
<!-- \\Sexo -->
<g id="node22" class="node"><title>\\Sexo</title>
<polygon fill="none" stroke="black" points="173.12,-322 119.12,-322 119.12,-286 173.12,-286 173.12,-322"/>
<text text-anchor="middle" x="146.12" y="-300.7" font-family="Courier,monospace" font-size="11.00">Sexo</text>
</g>
<!-- \\Teleconsultoria -->
<g id="node23" class="node"><title>\\Teleconsultoria</title>
<polygon fill="none" stroke="black" points="203.636,-268 88.6038,-268 88.6038,-232 203.636,-232 203.636,-268"/>
<text text-anchor="middle" x="146.12" y="-246.7" font-family="Courier,monospace" font-size="11.00">Teleconsultoria</text>
</g>
<!-- \\Telediagnostico -->
<g id="node24" class="node"><title>\\Telediagnostico</title>
<polygon fill="none" stroke="black" points="203.636,-214 88.6038,-214 88.6038,-178 203.636,-178 203.636,-214"/>
<text text-anchor="middle" x="146.12" y="-192.7" font-family="Courier,monospace" font-size="11.00">Telediagnostico</text>
</g>
<!-- \\TeleeducacaoAtividade -->
<g id="node25" class="node"><title>\\TeleeducacaoAtividade</title>
<polygon fill="none" stroke="black" points="223.243,-160 68.9969,-160 68.9969,-124 223.243,-124 223.243,-160"/>
<text text-anchor="middle" x="146.12" y="-138.7" font-family="Courier,monospace" font-size="11.00">TeleeducacaoAtividade</text>
</g>
<!-- \\TeleeducacaoObjetoAprendizagem -->
<g id="node26" class="node"><title>\\TeleeducacaoObjetoAprendizagem</title>
<polygon fill="none" stroke="black" points="253.152,-106 39.0876,-106 39.0876,-70 253.152,-70 253.152,-106"/>
<text text-anchor="middle" x="146.12" y="-84.7" font-family="Courier,monospace" font-size="11.00">TeleeducacaoObjetoAprendizagem</text>
</g>
<!-- \\TeleeducacaoCurso -->
<g id="node27" class="node"><title>\\TeleeducacaoCurso</title>
<polygon fill="none" stroke="black" points="210.338,-52 81.9014,-52 81.9014,-16 210.338,-16 210.338,-52"/>
<text text-anchor="middle" x="146.12" y="-30.7" font-family="Courier,monospace" font-size="11.00">TeleeducacaoCurso</text>
</g>
</g>
</svg>
